<?xml version="1.0" encoding="utf-8"?>
<!-- Generator: Adobe Illustrator 18.1.1, SVG Export Plug-In . SVG Version: 6.00 Build 0)  -->
<svg version="1.1" xmlns="http://www.w3.org/2000/svg" xmlns:xlink="http://www.w3.org/1999/xlink" x="0px" y="0px"
	 viewBox="0 0 259.6 123.7" enable-background="new 0 0 259.6 123.7" xml:space="preserve">
<g id="Semiconductor">
	<g id="Base">
		<polyline fill="#FFFFFF" stroke="#000000" stroke-linecap="round" stroke-linejoin="round" stroke-miterlimit="10" points="
			251.7,63 251.7,72.2 170.8,116.3 170.8,104.7 		"/>
		<polyline fill="#FFFFFF" stroke="#000000" stroke-linejoin="round" stroke-miterlimit="10" points="170.8,104.9 170.8,116.3 
			22.5,35.3 22.5,26.9 		"/>
		<polygon fill="#FFFFFF" stroke="#000000" stroke-linecap="round" stroke-linejoin="round" stroke-miterlimit="10" points="
			170.3,104.8 22.5,26.9 99.4,6.1 251.5,63 		"/>
	</g>
	<g id="Perspective_Text_2_">
		<g>
			<path d="M165.5,96.4c0.2,0.5,0.9,1.2,1.9,1.7c1.5,0.8,3.2,0.8,4.4,0.2c1.1-0.5,1.1-1.2,0.1-2.3c-1.2-1.3-1.4-2.3,0.2-3.1
				c1.7-0.9,4.5-0.8,6.7,0.3c1.2,0.6,1.8,1.1,2,1.5l-1.6,0.4c-0.2-0.3-0.6-0.8-1.7-1.4c-1.6-0.8-3.1-0.6-3.8-0.2
				c-1.1,0.5-0.9,1.1,0.1,2.2c1.2,1.4,1.3,2.3-0.4,3.2c-1.8,0.9-4.7,1-7.4-0.4c-1.1-0.6-2-1.3-2.2-1.9L165.5,96.4z"/>
		</g>
	</g>
</g>
<g id="Ferromagnetics">
	<g id="Injector">
		<g>
			<polyline fill="#FFFFFF" stroke="#000000" stroke-linecap="round" stroke-linejoin="round" stroke-miterlimit="10" points="
				55.1,52.7 55.1,57.8 35.7,46.9 35.7,42.1 			"/>
			<polyline fill="#FFFFFF" stroke="#000000" stroke-linecap="round" stroke-linejoin="round" stroke-miterlimit="10" points="
				164.7,16 144.1,9 35.7,42.1 54.8,52.5 			"/>
			<polygon fill="#FFFFFF" stroke="#000000" stroke-linecap="round" stroke-linejoin="round" stroke-miterlimit="10" points="
				164.6,16 55.1,52.4 55.1,57.8 164.6,20.4 			"/>
		</g>
		<g id="Perspective_Text_3_">
			<g>
				<path d="M131.8,19.5l14.3-4.6l1.6,0.6l-14.3,4.6L131.8,19.5z"/>
			</g>
		</g>
		<g id="Perspective_Text">
			<g>
				<path d="M58.3,40.3l5.6,2.8l-1.3,0.4l-4.2-2.2l-4,1.3l3.9,2L57,45l-3.9-2l-5.5,1.7L46.3,44L58.3,40.3z"/>
			</g>
		</g>
	</g>
	<g id="Detector">
		<g>
			<polyline fill="#FFFFFF" stroke="#000000" stroke-linecap="round" stroke-linejoin="round" stroke-miterlimit="10" points="
				121.6,88.9 121.6,95 94.7,79.9 94.7,74.3 			"/>
			<polyline fill="#FFFFFF" stroke="#000000" stroke-linecap="round" stroke-linejoin="round" stroke-miterlimit="10" points="
				232.8,39.3 206.2,30.2 94.7,74.3 121.2,88.7 			"/>
			<polygon fill="#FFFFFF" stroke="#000000" stroke-linecap="round" stroke-linejoin="round" stroke-miterlimit="10" points="
				232.8,39.3 121.6,88.5 121.6,95 232.8,44.4 			"/>
		</g>
		<g id="Perspective_Text_4_">
			<g>
				<path d="M205.5,36c1.1,0.3,2.4,0.7,3.7,1.1c2.3,0.8,3.6,1.6,3.8,2.4c0.3,0.8-0.3,1.6-2.1,2.3c-1.8,0.8-3.9,1.2-6.2,1.2
					c-2.2,0-4.8-0.5-7.2-1.4c-1.2-0.4-2.1-0.8-2.8-1.1L205.5,36z M197.4,40.6c0.3,0.2,0.9,0.4,1.6,0.6c3.5,1.3,7.1,1.3,10.1,0
					c2.6-1.1,2.5-2.4-1-3.6c-0.8-0.3-1.5-0.5-2-0.6L197.4,40.6z"/>
			</g>
		</g>
		<g id="Perspective_Text_1_">
			<g>
				<path d="M119.6,71.3l7.6,3.8l-1.3,0.6l-5.8-3l-4.1,1.7l5.3,2.8l-1.4,0.6l-5.3-2.8l-5.8,2.4l-1.8-1L119.6,71.3z"/>
			</g>
		</g>
	</g>
</g>
<g id="Current">
	<g>
		<g>
			<line fill="none" stroke="#000000" stroke-miterlimit="10" x1="96.4" y1="11" x2="96.4" y2="26.5"/>
			<g>
				<polygon points="96.4,30.8 94,24.8 96.4,26.2 98.9,24.8 				"/>
			</g>
		</g>
	</g>
	<g id="Spins">
		<g>
			<g>
				<line fill="none" stroke="#000000" stroke-width="0.25" stroke-miterlimit="10" x1="120.1" y1="42.6" x2="120.1" y2="39.2"/>
				<g>
					<polygon points="121.3,39.6 120.1,37.4 118.8,39.6 					"/>
				</g>
			</g>
		</g>
		<g>
			<g>
				<line fill="none" stroke="#000000" stroke-width="0.25" stroke-miterlimit="10" x1="133.2" y1="48.5" x2="133.2" y2="44.8"/>
				<g>
					<polygon points="134.4,45.2 133.2,43 132,45.2 					"/>
				</g>
			</g>
		</g>
		<g>
			<g>
				<line fill="none" stroke="#000000" stroke-width="0.25" stroke-miterlimit="10" x1="122.1" y1="44.4" x2="124.6" y2="41.7"/>
				<g>
					<polygon points="125.3,42.8 125.7,40.3 123.4,41.1 					"/>
				</g>
			</g>
		</g>
		<g>
			<g>
				<line fill="none" stroke="#000000" stroke-width="0.25" stroke-miterlimit="10" x1="129.6" y1="47.5" x2="128.7" y2="43.4"/>
				<g>
					<polygon points="130,43.5 128.4,41.7 127.6,44 					"/>
				</g>
			</g>
		</g>
	</g>
	<g>
		<g>
			
				<line fill="none" stroke="#000000" stroke-width="0.75" stroke-linecap="round" stroke-linejoin="round" x1="117.1" y1="39.8" x2="135.8" y2="48.4"/>
			<g>
				<polygon points="138.7,49.7 133.8,49.5 135.6,48.3 135.4,46.2 				"/>
			</g>
		</g>
	</g>
	<g>
		<g>
			
				<line fill="none" stroke="#000000" stroke-width="0.75" stroke-linecap="round" stroke-linejoin="round" x1="69.3" y1="19.4" x2="80.1" y2="24.4"/>
			<g>
				<polygon points="66.4,18.1 69.7,21.6 69.5,19.5 71.2,18.3 				"/>
			</g>
		</g>
	</g>
</g>
<g id="Circuit_Elements">
	<g>
		
			<line fill="none" stroke="#000000" stroke-linecap="round" stroke-linejoin="round" stroke-miterlimit="10" x1="26.9" y1="35.8" x2="13.1" y2="39.8"/>
		<line fill="none" stroke="#000000" stroke-linejoin="round" stroke-miterlimit="10" x1="13.1" y1="39.8" x2="13.1" y2="45.8"/>
		<line fill="none" stroke="#000000" stroke-linejoin="round" stroke-miterlimit="10" x1="7.4" y1="47.5" x2="18.7" y2="44.1"/>
		<line fill="none" stroke="#000000" stroke-linejoin="round" stroke-miterlimit="10" x1="10.2" y1="49.7" x2="15.9" y2="47.9"/>
		<line fill="none" stroke="#000000" stroke-linejoin="round" stroke-miterlimit="10" x1="11.7" y1="52.2" x2="14.5" y2="51.4"/>
	</g>
	<g>
		<path fill="none" stroke="#000000" stroke-width="0.5" stroke-miterlimit="10" d="M189,77.2c0,3.2-1.9,5-4.2,3.9
			c-2.3-1.1-4.2-4.5-4.2-7.7c0-3.2,1.9-4.9,4.2-3.9C187.1,70.5,189,74,189,77.2z"/>
		<polyline fill="none" stroke="#000000" stroke-width="0.5" stroke-miterlimit="10" points="180.6,73.4 152,60.6 152,69.8 		"/>
		<line fill="none" stroke="#000000" stroke-width="0.5" stroke-miterlimit="10" x1="184.8" y1="81.1" x2="184.8" y2="85.1"/>
	</g>
	<g id="Perspective_Text_5_">
		<g>
			<path d="M184.3,78.6l-1.5-6.9l0.6,0.3l0.7,3.4c0.2,0.9,0.4,1.8,0.5,2.5l0,0c0.1-0.7,0.3-1.4,0.5-2.1l0.8-2.7l0.6,0.3l-1.6,5.5
				L184.3,78.6z"/>
		</g>
	</g>
	<g id="Perspective_Text_6_">
		<g>
			<path d="M99,18.9v-0.8l0.6-0.2v-6.3L99,11.9v-0.8l2-0.6v0.8l-0.6,0.2v6.3l0.6-0.2v0.8L99,18.9z"/>
		</g>
	</g>
</g>
</svg>
